<?xml version="1.0" encoding="utf-8"?>
<!-- Generator: Adobe Illustrator 27.8.1, SVG Export Plug-In . SVG Version: 6.00 Build 0)  -->
<svg version="1.1" id="Camada_1" xmlns="http://www.w3.org/2000/svg" xmlns:xlink="http://www.w3.org/1999/xlink" x="0px" y="0px"
	 viewBox="0 0 1050 750.9" style="enable-background:new 0 0 1050 750.9;" xml:space="preserve">
<style type="text/css">
	.st0{opacity:0.1;fill:#6C63FF;enable-background:new    ;}
	.st1{fill:#3F3D56;}
	.st2{opacity:0.1;enable-background:new    ;}
	.st3{fill:#6C63FF;}
	.st4{fill:#FBBEBE;}
	.st5{opacity:5.000000e-02;enable-background:new    ;}
	.st6{opacity:0.1;}
	.st7{fill:#FF6F61;}
	.st8{fill:#F2F2F2;}
	.st9{opacity:3.000000e-02;enable-background:new    ;}
</style>
<ellipse class="st0" cx="525" cy="717.9" rx="525" ry="33"/>
<path class="st1" d="M967.7,693.4c0,2.6-0.3,5.2-0.8,7.8c-0.1,0.5-0.2,1-0.3,1.4c-2.8,11.4-10.8,19.7-20.4,20.2c-0.3,0-0.6,0-1,0
	c-10.1,0-18.7-8.7-21.5-20.7c-0.1-0.3-0.2-0.6-0.2-1c-0.5-2.6-0.8-5.2-0.8-7.8c0-16.3,10.1-29.5,22.5-29.5
	C957.6,663.9,967.7,677.2,967.7,693.4z"/>
<path class="st2" d="M967.7,693.4c0,2.6-0.3,5.2-0.8,7.8c-0.1,0.5-0.2,1-0.3,1.4c-0.3,0-0.7,0-1,0c-2.5-0.1-4.9-0.5-7.4-1
	c-2.1,0.7-4.3,1.2-6.6,1.5c-1.7,0.3-3.4,0.4-5.1,0.5h-1.7c-2.1,0-4.1-0.1-6.2-0.4c-3.3-0.4-6.5-1.2-9.7-2.4c-1.7,0.6-3.5,1-5.2,1.4
	c-0.1-0.3-0.2-0.6-0.2-1c-0.5-2.6-0.8-5.2-0.8-7.8c0-16.3,10.1-29.5,22.5-29.5S967.7,677.2,967.7,693.4z"/>
<path class="st3" d="M1015.7,638.6c0-7.2-1.7-14.2-4.9-20.6l-26.5,8.2l23.2-13.7c-7.9-11.4-20.5-18.6-34.4-19.6
	c-1.1-1.6-2.3-3.2-3.6-4.7l-38,11.8l31.2-18.3c-20-15.4-48.8-11.6-64.1,8.5c-3.6,4.7-6.3,10.2-7.9,15.9l32.5,37.5L888,618.1
	c-20.6,14.6-25.5,43.1-10.9,63.8c11.7,16.5,32.7,23.3,51.8,16.9c9.4,3.4,19.7,3.7,29.3,0.8c24.7,5.5,49.1-10.1,54.5-34.8
	c0.7-3.2,1.1-6.6,1.1-9.9c0-1,0-2-0.1-3C1015,647.6,1015.7,643.1,1015.7,638.6z"/>
<path class="st2" d="M1014.9,647.1c-14-2.7-28.3-2.8-42.3-0.5c-15.9,2.6-32.1,8.4-47.7,4.2c-9.1-2.5-17-8.2-25.9-11.4
	c-8.6-3-17.9-3.6-26.8-1.6c-9.8,23.3,1.2,50.1,24.6,59.9c10.2,4.3,21.6,4.7,32.1,1.2c9.4,3.4,19.7,3.7,29.3,0.8
	c24.7,5.5,49.1-10.1,54.5-34.8c0.7-3.2,1.1-6.6,1.1-9.9c0-1,0-2-0.1-3C1014.2,650.3,1014.6,648.7,1014.9,647.1z"/>
<path class="st3" d="M134.1,683.7l19.1-11.3c-2.6-4.4-5.9-8.4-9.8-11.7L107.3,672l28.3-16.6c-22.3-12.2-50.2-4-62.4,18.2
	c-3.7,6.8-5.7,14.4-5.7,22.1c0,25.4,20.6,26.3,46,26.3s46-0.9,46-26.3c0-6.4-1.3-12.8-3.9-18.7L134.1,683.7z"/>
<path class="st2" d="M138.9,708.4c-2-2-4.3-3.8-6.8-5.3c-3.5-2.3-7.1-4.7-11.2-5.5c-3.6-0.7-7.3-0.1-11-0.3
	c-6.4-0.4-12.4-3.1-16.8-7.7c-2.6-2.7-4.7-6-7.8-8.1c-3.4-2.2-7.7-2.7-11.7-2.2c-1.2,0.2-2.3,0.4-3.5,0.7c-1.8,5-2.7,10.3-2.7,15.6
	c0,25.4,20.6,26.3,46,26.3c12.3,0,23.5-0.2,31.8-3.3l-1.4-2.6C142.6,713.3,140.9,710.8,138.9,708.4z"/>
<path class="st1" d="M489.8,541.5c-1.9,1.6-3.3,3.7-4.2,6.1c-2.2,6.9,3.9,13.6,4.5,20.8c0.5,5.7-2.6,11-4.3,16.5
	c-4,13.9,0.9,28.8,12.2,37.8c1.2,1,2.6,1.7,4.1,2.1c2.5,0.3,5-0.4,7-2.1c3-2.2,5.3-5.2,6.5-8.6c1.1-3.4,1.6-6.9,1.7-10.5l0.9-13.8
	c1-14.4,1.8-29.2-1.7-43.3c-1.1-4.6-3.3-15.3-8.6-15.9C502.7,530,493.4,538.1,489.8,541.5z"/>
<path class="st4" d="M579.5,482.5c-6.4,22.5-11.1,45.6-13.9,68.8c-0.4,3.3-0.8,6.7-2.8,9.4c-3.9,5.3-11.9,5-18.4,4.1
	c-1.6-0.1-3.1-0.5-4.5-1.3c-2.5-1.7-3-5-3.3-8c-4.5-43.8-7.5-87.7-9-131.7c-0.1-1.7,54.9-1.8,59.6,2.6s1.1,20.9,0,26.5
	C585.4,462.9,582.3,472.7,579.5,482.5z"/>
<path class="st5" d="M579.5,482.5c-6.4,22.5-11.1,45.6-13.9,68.8c-0.4,3.3-0.8,6.7-2.8,9.4c-3.9,5.3-11.9,5-18.4,4.1
	c-1.6-0.1-3.1-0.5-4.5-1.3c-2.5-1.7-3-5-3.3-8c-4.5-43.8-7.5-87.7-9-131.7c-0.1-1.7,54.9-1.8,59.6,2.6s1.1,20.9,0,26.5
	C585.4,462.9,582.3,472.7,579.5,482.5z"/>
<path class="st4" d="M465.1,417.6l22.2,48.9c7.4,16.3,14.9,32.7,18.4,50.2c1.4,7.3,2.3,14.7,2.7,22.2c0.5,6.4,0.3,12.8-0.6,19.1
	c-0.8,4.7-2.3,9.3-3,14c-2.6,18.9,8.1,36.6,15.4,54.1c6.3,15.1,10.3,31,11.9,47.3c0.7,6.9,1,14.3,5,20c7.2-2.2,14.3-4,21.9-3.2
	c1.3-11.1-5.6-21.3-8.2-32.1c-4.7-19.9,5.7-40.9,2.2-61c-1.9-10.9-7.9-21.2-7.4-32.3c0.9-20.2,4.7-40.6,0.8-60.4
	c-4.3-22.4-16.8-42.7-19.6-65.3c-2.1-17.4,1.3-36.6-8.4-51.2C497.3,386.6,475.5,399.1,465.1,417.6z"/>
<path class="st1" d="M538.2,724.9c-2.2,0.1-4.8,0-6.2-1.8c-0.7-1-1.1-2.2-1.1-3.4c-1.1-7.7-1.6-15.6-1.5-23.4c0-2.9,0.1-5.9,1.7-8.2
	c1.2-1.4,2.5-2.7,4-3.9c3.4-3.1,5.9-7.7,10.3-9.2c3.9-1.1,8.2,0,11,2.9c2.8,3,4.5,6.7,4.9,10.8c0.6,4.8,0.1,10,2.6,14.1
	c1,1.6,2.4,2.9,3.5,4.4c3.9,5.1,7.3,15.2-0.6,17.3C558.3,726.8,547,724.6,538.2,724.9z"/>
<path class="st1" d="M557.5,128c4.5-8.7,1.8-19.9-4.6-27.2c-6.4-7.4-15.8-11.5-25.4-13.7c-12.9-3-26.6-3-38.9,1.7
	c-9.8,3.8-18.3,10.3-27.3,15.6c-16,9.4-33.9,15.1-52.4,16.7c-20.6,1.7-43.5-1-59.4,12.1c-29.1,24-8.8,78-36,104.2
	c-7.3,7.1-17.1,10.9-25.5,16.6s-15.9,14.9-14.5,25c0.6,4.8,3.3,9.2,6.3,13c13.1,16.4,35.2,25,56.1,22.5c20.9-2.6,40-16,50.1-34.4
	c2.6-4.6,4.7-9.7,8.7-13c8.1-6.7,20-4,30.5-4.3c23.4-0.7,44.6-20.8,46.7-44.1c0.9-10-0.8-21.6,6.3-28.5c5.8-5.7,14.8-5.6,22.7-7.3
	c14.5-3.2,25.1-13.7,31.7-26.5c3-5.9,2.7-12.5,7.2-17.4C544.5,133.7,553.2,136.3,557.5,128z"/>
<g class="st6">
	<path d="M389.7,125.2c8.5-0.7,17-2.3,25.2-4.8c-2.3,0.3-4.6,0.6-7,0.8c-16.1,1.3-33.8,0-48.3,5.7
		C369.5,125.8,379.9,126,389.7,125.2z"/>
	<path d="M375.4,271.2c-4,3.3-6.2,8.4-8.7,13c-7.8,14-20.3,24.9-35.2,30.7c1.1-0.1,2.3-0.2,3.4-0.3c20.9-2.6,40-15.9,50.1-34.4
		c2.6-4.6,4.6-9.7,8.7-13l0.7-0.5C387.3,266.5,380.6,266.9,375.4,271.2z"/>
	<path d="M551.9,100.8c-6.4-7.4-15.9-11.5-25.4-13.7c-12.9-3-26.6-3-38.9,1.8l-0.8,0.3c7.2-0.4,14.5,0.2,21.6,1.9
		c9.5,2.2,19,6.3,25.4,13.7s9.1,18.6,4.6,27.2c-4.3,8.3-13,5.7-17.9,11c-4.5,4.9-4.2,11.5-7.2,17.4c-5.7,11-14.3,20.3-25.8,24.7
		c4-1,8.3-1.4,12.4-2.2c14.5-3.2,25.1-13.7,31.7-26.5c3-5.9,2.7-12.5,7.2-17.4c4.9-5.3,13.6-2.8,17.9-11
		C561,119.4,558.3,108.2,551.9,100.8z"/>
	<path d="M481.6,186.9c-7.9,1.7-16.9,1.7-22.7,7.3c-7.2,7-5.5,18.6-6.3,28.6c-1.5,17.4-13.8,33-29.6,40.1h1.2
		c23.4-0.7,44.6-20.8,46.6-44.1c0.9-10-0.8-21.6,6.3-28.6c1.6-1.6,3.6-2.8,5.7-3.6L481.6,186.9z"/>
</g>
<path class="st4" d="M557.9,245c-1.1,1.9-3.3,2.8-5.3,3.5c-21.2,7.8-43.4,15.7-65.7,12.4c-0.8-3.5-1.7-7-2.5-10.5
	c-1.2-5.1-2.4-10.2-3.6-15.3c-0.6-2.4-1.1-4.9-1.6-7.4l0,0c-0.8-3.9-1.1-7.9-0.8-11.9c0.1-1.4,0.4-2.9,0.8-4.3
	c0.7-2.5,1.8-4.9,3.3-7.1c0.3-0.3,0.5-0.7,0.8-1l0,0c1.3-1.5,2.8-2.8,4.6-3.8c3.8-2.1,9-3,10.5-7c0.6-2.1,0.5-4.3-0.2-6.4
	c-1.3-5.1-3.6-10-5.1-15.1c-1.8-6.4,0.9-6,7.1-7.6c11.2-2.8,22.9-4.8,34.4-2.6c-0.5,5.7-1.1,11.5,0.4,17c1.4,5.5,5.2,10.8,10.7,12.3
	c0.8,0.2,1.7,0.4,2.6,0.6l0,0c1.2,0.2,2.3,0.7,3.3,1.4c0.7,0.6,1.2,1.3,1.6,2.1c0.6,1.4,0.9,2.8,1.1,4.2c2,13.5,3.5,27,4.4,40.7v0.5
	C558.9,241.6,558.6,243.4,557.9,245z"/>
<path class="st4" d="M449,222.8c-4.8,7.3-6.4,16.2-7.9,24.8l-9.3,54.1c-1.3,7.4-2.4,15.5,1.4,22c1.3,2.2,3.1,4.1,4,6.4
	c0.7,2.3,1.2,4.7,1.4,7.2c2.2,12.4,14.4,20.8,26.6,23.8c4.4,1.1,9.6,1.5,13.1-1.4c3.9-3.2,3.9-9.3,1.6-13.7
	c-2.3-4.4-6.4-7.5-10.4-10.4l-13.3-9.8l7.7-59.1c0.6-4.3,2.6-9.9,6.9-9.4c4,0.4,7,6.2,10.5,4.3c1.1-0.7,1.9-1.9,2.2-3.2
	c1.5-4.8,1.1-10.1,0.7-15.1l-1.6-18.3c-0.5-6,1-10.4,1.7-16c0.8-6.5-3.5-4.5-8.9-3.1C465,208.6,454.9,213.8,449,222.8z"/>
<path class="st4" d="M614.7,311.7c-1,1.6-2.4,3-4.2,3.8c-10.4,5.9-22.6,7.6-34.3,4.8c-2.7-0.8-5.4-1.4-8.1-1.9
	c-4.4-0.5-8.9,0.3-13.3,0c-9-0.7-16.9-6.3-23.1-12.9c-3.8-3.9-7.2-10.2-3.7-14.3c2-2,4.9-2.9,7.6-2.3c2.7,0.6,5.3,1.6,7.8,2.9
	c8.6,4,17.8,6.5,27.2,7.5c6.4,0.7,14.6-0.4,16.8-6.5c1.1-3,0.3-6.3-0.4-9.3c-2.1-8.4-4.1-16.8-6.2-25.3c-0.1-0.7-0.4-1.4-0.8-2.1
	c-0.1-0.2-0.2-0.3-0.4-0.5c-0.8-0.7-1.8-1.1-2.9-1.3c-4.8-1.2-9.6-3.1-13-6.6c-2.2-2.5-4-5.4-5.3-8.5c-0.4-0.8-0.7-1.6-1-2.4
	c-2.6-6.1-5.4-12.4-7.6-18.9c-1.5-4.4-2.6-8.8-3.3-13.4c-0.6-3.9-0.9-5.8,1.3-7.5c0.6-0.4,1.2-0.8,1.8-1.2c1-0.5,2.1-1.1,3.3-1.6
	l1.1-0.5c3.5-1.4,7.1-2.6,10.8-3.4c8.9-2.1,18.4,2.2,24.6,9.1s9.3,15.8,11.3,24.7c2,8.9,3.1,18.1,5.6,26.9c1,3.4,2.2,6.8,3.1,10.3
	c0.9,4.1,1.6,8.2,1.9,12.4c1.2,10.7,2.4,21.3,3.6,32C615.6,307.7,615.4,309.8,614.7,311.7z"/>
<path class="st4" d="M482.7,307.1c2.6,16.4-4.8,32.5-12,47.6c4,3,9,4.4,13.8,5.7c32.3,8.5,66,11,99.2,7.5c0.8-5.6,1.5-11.4-0.7-16.6
	c-1.4-3.2-3.9-5.8-5.4-8.9c-2.6-5.1-2.3-11.1-2-16.8l2.3-48.6c-16-7.4-34.4-0.5-52,0.5c-9.1,0.5-18.3-0.6-27.2,1
	c-4.7,0.8-19.3,3.1-21.5,7.9C475,291.2,482,301.9,482.7,307.1z"/>
<path class="st5" d="M482.7,307.1c2.6,16.4-4.8,32.5-12,47.6c4,3,9,4.4,13.8,5.7c32.3,8.5,66,11,99.2,7.5c0.8-5.6,1.5-11.4-0.7-16.6
	c-1.4-3.2-3.9-5.8-5.4-8.9c-2.6-5.1-2.3-11.1-2-16.8l2.3-48.6c-16-7.4-34.4-0.5-52,0.5c-9.1,0.5-18.3-0.6-27.2,1
	c-4.7,0.8-19.3,3.1-21.5,7.9C475,291.2,482,301.9,482.7,307.1z"/>
<path class="st1" d="M525,354.1c-17.3-3.6-34.3-9.5-51.9-10c-0.9-0.1-1.8,0.1-2.6,0.5c-0.9,0.7-1.4,1.7-1.6,2.8
	c-1.8,6.3-3.5,12.6-4.9,19c-4.8,21.2-7.1,44.7,3.4,63.8c-0.1-6.2,3.8-12,9-15.4c5.2-3.4,11.4-4.8,17.6-5.4
	c6.2-0.6,12.8-0.3,18.5,2.2c8.2,3.7,13.7,11.5,14.6,20.4l60.7,2c1.2,0.3,2.4-0.3,2.8-1.5c0.1-0.3,0.1-0.6,0.1-0.9
	c2.2-19.5,2.2-39.2-0.2-58.6c-0.7-5.4-0.8-13-6.9-15c-7.3-2.4-18.8,0.4-26.6,0.1C546.2,357.6,535.5,356.3,525,354.1z"/>
<path class="st7" d="M580.1,258.9l-0.2,27l-61.4,2c-11.3,0.4-22.6,0.8-33.6,3.3c-3.2,0.7-6.3,1.6-9.4,2.5
	c-3.2-11.9-6.4-24.3-5.6-36.4l0,0c0.2-3.3,0.8-6.5,1.7-9.6c2-6.8,5.6-13.2,7.6-19.9l0,0c0.8-2.6,1.2-5.3,1.3-8
	c-0.1-2.7-0.6-5.4-1.3-8.1c-0.6-2.2-0.8-4.4-0.8-6.6l4.9-1.5l0,0c0.1,0.6,0.3,1.1,0.4,1.7c0.2,1.2,0.4,2.5,0.5,3.7l0,0
	c0.3,3.1,0.4,6.2,0.3,9.3c-0.2,6.2-1,13.1,2.9,18c5,6.3,14.7,5.3,22.6,3.7l20.7-4.1c6.5-1.3,13.8-3.1,17.2-8.8
	c1.5-2.8,2.2-5.9,2.2-9v-0.6c0.3-6.8-0.4-13.7-2-20.3c-0.5-2.1-1.1-4.1-1.8-6.2h2.1c1.2,0.2,2.3,0.7,3.3,1.4
	c0.7,0.6,1.2,1.3,1.6,2.1l1.1-0.5c4.6,18.6,12.1,36.4,22.3,52.7c1.3,1.9,2.3,3.9,3.1,6.1c0.3,1.2,0.5,2.4,0.5,3.6
	C580.1,257.1,580.1,258,580.1,258.9z"/>
<circle class="st4" cx="515.2" cy="140" r="37.3"/>
<path class="st4" d="M449,222.8c-4.8,7.3-6.4,16.2-7.9,24.8l-9.3,54.1c-1.3,7.4-2.4,15.5,1.4,22c1.3,2.2,3.1,4.1,4,6.4
	c0.7,2.3,1.2,4.7,1.4,7.2c2.2,12.4,14.4,20.8,26.6,23.8c4.4,1.1,9.6,1.5,13.1-1.4c3.9-3.2,3.9-9.3,1.6-13.7
	c-2.3-4.4-6.4-7.5-10.4-10.4l-13.3-9.8l7.7-59.1C464.2,262.4,454.9,213.8,449,222.8z"/>
<path class="st4" d="M600.9,224.2c2,8.9,3.1,18.1,5.6,26.9c1,3.5,2.2,6.8,3.1,10.3c0.9,4.1,1.6,8.2,1.9,12.4l3.6,32
	c0.4,2,0.3,4-0.4,5.9c-1,1.6-2.4,3-4.2,3.8c-10.4,5.9-22.6,7.6-34.3,4.8c-2.7-0.8-5.4-1.4-8.1-1.9c-4.4-0.6-8.9,0.3-13.3,0
	c-9-0.7-16.9-6.3-23.1-12.8c-3.8-3.9-7.2-10.2-3.7-14.3c2-2,4.9-2.9,7.6-2.3c2.7,0.6,5.3,1.6,7.8,2.9c8.6,4,17.8,6.5,27.2,7.5
	c6.4,0.7,14.6-0.4,16.8-6.5c1.1-3,0.3-6.3-0.4-9.3l-6.2-25.3C580.6,257.4,598.9,215.3,600.9,224.2z"/>
<path class="st1" d="M492.2,151.4c-1.7-6-4-13.4,0.7-17.4c1.7-1.3,3.7-2.1,5.8-2.2c10.5-1.3,21.3,4.9,31.3,1.6
	c9.1-3,14.1-12.8,11.2-22c-1.3-4.1-4.1-7.5-7.8-9.7c-4.4-2.6-9.6-3.1-14.7-3.5c-13.3-1.2-27.2-2.4-39.6,2.6
	c-12.4,4.9-22.9,17.6-20.4,30.7c1.2,6.3,5.1,11.6,9,16.6c3,3.8,15.1,21.9,20,21.6C494.5,169.3,493.2,155.3,492.2,151.4z"/>
<path class="st2" d="M533.3,101.7c-0.7-0.4-1.5-0.8-2.3-1.1c7.1,6.5,7.7,17.5,1.2,24.6c-2,2.2-4.6,3.9-7.5,4.9
	c-10,3.3-20.9-2.9-31.3-1.6c-2.1,0.2-4.1,0.9-5.8,2.2c-4.7,4-2.3,11.5-0.7,17.4c1.1,3.9,2.4,17.9-4.4,18.3h-0.1
	c2.1,2.1,4,3.4,5.4,3.3c6.8-0.4,5.5-14.4,4.4-18.3c-1.7-6-4-13.4,0.7-17.4c1.7-1.3,3.7-2.1,5.8-2.2c10.5-1.3,21.3,4.9,31.3,1.6
	c9.1-3,14.1-12.8,11.2-22C539.8,107.3,537,103.9,533.3,101.7L533.3,101.7z"/>
<path class="st8" d="M261,56.5l-15.5,9.8l9.4-17.1c-2.7-2.1-6-3.3-9.4-3.3h-0.2c-1.1,0-2.2-0.1-3.2-0.2l-5.3,3.3l2.3-4.1
	c-3.7-1.3-7-3.7-9.2-7l-9.4,6l6-10.8c-5.5-6.6-12.9-10.7-21.1-10.7c-9.8,0-18.5,5.8-24.1,14.9c-3.4,5.5-9.5,8.8-16,8.6h-0.5
	c-10.8,0-19.6,12.2-19.6,27.4s8.8,27.4,19.6,27.4c2.4,0,4.7-0.6,6.8-1.7c7.4-3.6,16.1-3.8,23.7-0.5c6.4,2.9,13.7,2.9,20.1,0
	c7.5-3.3,16.1-3.1,23.5,0.5c2.1,1.1,4.4,1.7,6.7,1.7c10.8,0,19.6-12.3,19.6-27.4C265.1,67.4,263.7,61.6,261,56.5z"/>
<path class="st9" d="M231.7,96.6c-5.6-1.1-11.5-0.4-16.7,1.8c-6.4,2.9-13.7,2.9-20.1,0c-7.6-3.3-16.2-3.2-23.7,0.5
	c-2.1,1.1-4.4,1.7-6.8,1.7c-9.6,0-17.6-9.7-19.2-22.4c1.9-1.4,3.5-3.2,4.8-5.2C155.5,63.9,164.3,58,174,58c9.8,0,18.4,5.8,24,14.7
	c3.4,5.5,9.5,8.8,16,8.7h0.2C221.9,81.5,228.5,87.6,231.7,96.6z"/>
<path class="st8" d="M816.6,320l-7.7,4.9l4.7-8.5c-1.3-1.1-3-1.6-4.7-1.7h-0.1c-0.5,0-1.1,0-1.6-0.1l-2.7,1.7l1.1-2
	c-1.9-0.6-3.5-1.9-4.6-3.5l-4.7,3l3-5.4c-2.5-3.3-6.4-5.2-10.5-5.3c-4.9,0-9.2,2.9-12,7.4c-1.7,2.8-4.8,4.4-8,4.3h-0.3
	c-5.4,0-9.8,6.1-9.8,13.6s4.4,13.7,9.8,13.7c1.2,0,2.4-0.3,3.4-0.9c3.7-1.8,8-1.9,11.8-0.2c1.6,0.7,3.3,1.1,5,1.1
	c1.7,0,3.4-0.4,5-1.1c3.8-1.6,8-1.5,11.7,0.2c1,0.5,2.2,0.8,3.4,0.8c5.4,0,9.8-6.1,9.8-13.7C818.6,325.4,817.9,322.5,816.6,320z"/>
<path class="st9" d="M801.9,339.9c-2.8-0.5-5.7-0.2-8.4,0.9c-3.2,1.4-6.8,1.4-10,0c-3.8-1.7-8.1-1.6-11.8,0.2
	c-1,0.6-2.2,0.9-3.4,0.9c-4.8,0-8.8-4.8-9.6-11.2c1-0.7,1.8-1.6,2.4-2.6c2.8-4.5,7.2-7.4,12-7.4s9.2,2.9,12,7.3
	c1.7,2.8,4.7,4.4,8,4.4h0.1C797,332.4,800.3,335.5,801.9,339.9z"/>
<path class="st8" d="M111.5,220.4l-7.7,4.9l4.7-8.5c-1.3-1.1-3-1.6-4.7-1.7h-0.1c-0.5,0-1.1,0-1.6-0.1l-2.7,1.7l1.1-2
	c-1.9-0.6-3.5-1.9-4.6-3.5l-4.7,3l3-5.4c-2.5-3.3-6.4-5.2-10.5-5.3c-4.9,0-9.2,2.9-12,7.4c-1.7,2.8-4.8,4.4-8,4.3h-0.3
	c-5.4,0-9.8,6.1-9.8,13.6s4.4,13.7,9.8,13.7c1.2,0,2.4-0.3,3.4-0.9c3.7-1.8,8-1.9,11.8-0.2c1.6,0.7,3.3,1.1,5,1.1
	c1.7,0,3.4-0.4,5-1.1c3.8-1.6,8-1.5,11.7,0.2c1,0.5,2.2,0.8,3.4,0.8c5.4,0,9.8-6.1,9.8-13.7C113.6,225.9,112.9,223,111.5,220.4z"/>
<path class="st9" d="M96.9,240.4c-2.8-0.5-5.7-0.2-8.4,0.9c-3.2,1.4-6.8,1.4-10,0c-3.8-1.7-8.1-1.6-11.8,0.2c-1,0.6-2.2,0.9-3.4,0.9
	c-4.8,0-8.8-4.8-9.6-11.2c1-0.7,1.8-1.6,2.4-2.6c2.8-4.5,7.2-7.4,12-7.4s9.2,2.9,12,7.3c1.7,2.8,4.7,4.4,8,4.4h0.1
	C92,232.9,95.3,236,96.9,240.4z"/>
<path class="st8" d="M789.7,124.6l12.4,7.9l-7.6-13.7c2.1-1.7,4.8-2.6,7.5-2.7h0.2c0.9,0,1.7-0.1,2.6-0.2l4.2,2.7l-1.8-3.3
	c3-1,5.6-3,7.4-5.6l7.5,4.8l-4.8-8.7c4.4-5.3,10.4-8.5,16.9-8.5c7.8,0,14.8,4.7,19.3,11.9c2.7,4.4,7.6,7.1,12.8,6.9h0.4
	c8.7,0,15.7,9.8,15.7,21.9s-7,21.9-15.7,21.9c-1.9,0-3.8-0.5-5.5-1.4c-6-2.9-12.9-3-19-0.4c-5.1,2.3-11,2.3-16.1,0
	c-6-2.6-12.9-2.5-18.8,0.4c-1.7,0.9-3.5,1.3-5.4,1.3c-8.7,0-15.7-9.8-15.7-21.9C786.3,133.3,787.5,128.7,789.7,124.6z"/>
<path class="st9" d="M813.1,156.7c4.5-0.9,9.2-0.4,13.4,1.5c5.1,2.3,11,2.3,16.1,0c6.1-2.7,13-2.5,19,0.4c1.7,0.9,3.6,1.4,5.5,1.4
	c7.7,0,14.1-7.8,15.4-18c-1.5-1.1-2.9-2.5-3.8-4.1c-4.5-7.3-11.5-11.9-19.3-11.9s-14.8,4.6-19.3,11.8c-2.7,4.4-7.6,7.1-12.8,7h-0.2
	C821,144.6,815.7,149.5,813.1,156.7z"/>
<path class="st8" d="M180.4,398.9l12.4,7.9l-7.6-13.7c2.1-1.7,4.8-2.6,7.5-2.7h0.2c0.9,0,1.7-0.1,2.6-0.2l4.2,2.7l-1.8-3.3
	c3-1,5.6-3,7.4-5.6l7.5,4.8l-4.8-8.7c4.4-5.3,10.4-8.5,16.9-8.5c7.8,0,14.8,4.7,19.3,11.9c2.7,4.4,7.6,7.1,12.8,6.9h0.4
	c8.7,0,15.7,9.8,15.7,21.9s-7,21.9-15.7,21.9c-1.9,0-3.8-0.5-5.5-1.4c-6-2.9-12.9-3-19-0.4c-5.1,2.3-11,2.3-16.1,0
	c-6-2.6-12.9-2.5-18.8,0.4c-1.7,0.9-3.5,1.3-5.4,1.3c-8.7,0-15.7-9.8-15.7-21.9C177,407.6,178.2,403,180.4,398.9z"/>
<path class="st9" d="M203.8,430.9c4.5-0.9,9.2-0.4,13.4,1.5c5.1,2.3,11,2.3,16.1,0c6.1-2.7,13-2.5,19,0.4c1.7,0.9,3.6,1.4,5.5,1.4
	c7.7,0,14.1-7.8,15.4-18c-1.5-1.1-2.9-2.5-3.8-4.1c-4.5-7.3-11.5-11.9-19.3-11.9c-7.8,0-14.8,4.6-19.3,11.8c-2.7,4.4-7.6,7.1-12.8,7
	h-0.2C211.7,418.9,206.4,423.8,203.8,430.9z"/>
</svg>
